<svg width="80" height="80" viewBox="0 0 80 80" fill="none" xmlns="http://www.w3.org/2000/svg">
  <!-- Background circle -->
  <circle cx="40" cy="40" r="40" fill="#f3f4f6"/>
  
  <!-- Face -->
  <circle cx="40" cy="32" r="12" fill="#fbbf24"/>
  
  <!-- Hair -->
  <path d="M28 26c0-8 5.5-14 12-14s12 6 12 14c0-2-1-4-3-4s-4 1-4 3c0-1-1-2-2-2s-2 1-2 2c0-2-2-3-4-3s-3 2-3 4c-2 0-3 2-3 4z" fill="#8b4513"/>
  
  <!-- Eyes -->
  <circle cx="36" cy="30" r="1.5" fill="#000"/>
  <circle cx="44" cy="30" r="1.5" fill="#000"/>
  
  <!-- Smile -->
  <path d="M36 36c2 2 6 2 8 0" stroke="#000" stroke-width="1" stroke-linecap="round" fill="none"/>
  
  <!-- Body/Uniform -->
  <rect x="30" y="48" width="20" height="25" rx="2" fill="#1f2937"/>
  
  <!-- Collar -->
  <rect x="32" y="48" width="16" height="8" fill="#3b82f6"/>
  
  <!-- Buttons -->
  <circle cx="37" cy="60" r="1" fill="#6b7280"/>
  <circle cx="43" cy="60" r="1" fill="#6b7280"/>
  
  <!-- Badge/ID -->
  <rect x="42" y="52" width="6" height="3" rx="0.5" fill="#fbbf24"/>
  
  <!-- Arms -->
  <rect x="24" y="52" width="6" height="15" rx="3" fill="#fbbf24"/>
  <rect x="50" y="52" width="6" height="15" rx="3" fill="#fbbf24"/>
  
  <!-- Professional touch - slight smile and confident posture -->
  <circle cx="35.5" cy="29.5" r="0.5" fill="#fff" opacity="0.8"/>
  <circle cx="43.5" cy="29.5" r="0.5" fill="#fff" opacity="0.8"/>
</svg>
