<svg width="12" height="12" viewBox="0 0 12 12" fill="none" xmlns="http://www.w3.org/2000/svg">
<path d="M5.99993 1C6.19963 1 6.38017 1.11882 6.45916 1.30224L7.69364 4.16882L10.8014 4.45705C11.0002 4.47549 11.169 4.61048 11.2307 4.80041C11.2925 4.99033 11.2352 5.19876 11.0852 5.33055L8.7404 7.39043L9.42662 10.4352C9.47053 10.63 9.39431 10.8322 9.23275 10.9496C9.07119 11.067 8.85528 11.077 8.68358 10.975L5.99993 9.3815L3.31629 10.975C3.14458 11.077 2.92867 11.067 2.76711 10.9496C2.60556 10.8322 2.52933 10.63 2.57324 10.4352L3.25946 7.39043L0.914656 5.33055C0.764629 5.19876 0.707411 4.99033 0.769121 4.80041C0.83083 4.61048 0.999631 4.47549 1.19847 4.45705L4.30623 4.16882L5.5407 1.30224C5.61969 1.11882 5.80024 1 5.99993 1Z" fill="#FFC13C"/>
</svg>
