<svg width="24" height="24" viewBox="0 0 24 24" fill="none" xmlns="http://www.w3.org/2000/svg">
<path fill-rule="evenodd" clip-rule="evenodd" d="M16.1741 15.3428C16.0049 14.3573 16.332 13.3518 17.0487 12.6539L19.8077 9.96745L15.9949 9.41402C15.0043 9.27024 14.1481 8.64878 13.7051 7.75218L11.9999 4.30092L10.2948 7.75218C9.85181 8.64878 8.99552 9.27024 8.00498 9.41402L4.19217 9.96745L6.95115 12.6539C7.66791 13.3518 7.99498 14.3573 7.82578 15.3428L7.17447 19.1361L10.5848 17.3451C11.4707 16.8799 12.5291 16.8799 13.4151 17.3451L16.8254 19.1361L16.1741 15.3428ZM6.29984 21.8835C5.80429 22.1437 5.19137 21.9534 4.93084 21.4584C4.8271 21.2613 4.7913 21.0355 4.82898 20.816L5.82751 15.0004C5.88391 14.6719 5.77489 14.3368 5.53597 14.1041L1.30613 9.98552C0.905222 9.59515 0.897019 8.95405 1.28781 8.55357C1.44342 8.3941 1.64733 8.29032 1.86795 8.2583L7.71344 7.40982C8.04362 7.36189 8.32905 7.15474 8.47671 6.85587L11.0909 1.5647C11.3387 1.06319 11.9465 0.857286 12.4486 1.10479C12.6485 1.20335 12.8103 1.36499 12.909 1.5647L15.5232 6.85587C15.6708 7.15474 15.9562 7.36189 16.2864 7.40982L22.1319 8.2583C22.686 8.33872 23.0698 8.85256 22.9893 9.40601C22.9573 9.62639 22.8534 9.83008 22.6937 9.98552L18.4639 14.1041C18.225 14.3368 18.116 14.6719 18.1724 15.0004L19.1709 20.816C19.2655 21.3672 18.8949 21.8907 18.3431 21.9852C18.1234 22.0229 17.8974 21.9871 17.7 21.8835L12.4717 19.1377C12.1763 18.9826 11.8235 18.9826 11.5282 19.1377L6.29984 21.8835Z" fill="#6A6B6E"/>
</svg>
