<svg width="24" height="24" viewBox="0 0 24 24" fill="none" xmlns="http://www.w3.org/2000/svg">
<path d="M6.5 6.3C6.5 5.7 6.9 5.3 7.5 5.3H21C21.6 5.3 22 5.7 22 6.3C22 6.9 21.6 7.3 21 7.3H7.5C6.9 7.3 6.5 6.8 6.5 6.3ZM3.3 5C2.6 5 2 5.6 2 6.3C2 7 2.6 7.6 3.3 7.6C4 7.6 4.6 7 4.6 6.3C4.6 5.6 3.9 5 3.3 5ZM21 11H7.5C6.9 11 6.5 11.4 6.5 12C6.5 12.6 6.9 13 7.5 13H21C21.6 13 22 12.6 22 12C22 11.4 21.6 11 21 11ZM3.3 10.8C2.6 10.8 2 11.3 2 12C2 12.7 2.6 13.3 3.3 13.3C4 13.3 4.6 12.7 4.6 12C4.6 11.3 3.9 10.8 3.3 10.8ZM21 16.8H7.5C6.9 16.8 6.5 17.2 6.5 17.8C6.5 18.4 6.9 18.8 7.5 18.8H21C21.6 18.8 22 18.4 22 17.8C22 17.2 21.6 16.8 21 16.8ZM3.3 16.5C2.6 16.5 2 17.1 2 17.8C2 18.5 2.6 19 3.3 19C4 19 4.6 18.4 4.6 17.7C4.6 17 3.9 16.5 3.3 16.5Z" fill="#4087E1"/>
</svg>
