<svg width="32" height="32" viewBox="0 0 32 32" fill="none" xmlns="http://www.w3.org/2000/svg">
  <!-- Background -->
  <circle cx="16" cy="16" r="16" fill="#ddd6fe"/>
  
  <!-- Face -->
  <circle cx="16" cy="14" r="7" fill="#c2960c"/>
  
  <!-- Hair (short, neat) -->
  <path d="M10 11c0-4 2.5-7 6-7s6 3 6 7c0-1-0.5-2-1.5-2s-2 0.5-2 1.5c0-0.5-0.5-1-1-1s-1 0.5-1 1c0-1-1-1.5-2-1.5s-1.5 1-1.5 2c-1 0-1.5 1-1.5 2 -1 0-1.5 0-1.5 0z" fill="#1f2937"/>
  
  <!-- Glasses -->
  <circle cx="13.5" cy="13" r="2" fill="none" stroke="#374151" stroke-width="0.5"/>
  <circle cx="18.5" cy="13" r="2" fill="none" stroke="#374151" stroke-width="0.5"/>
  <path d="M15.5 13h1" stroke="#374151" stroke-width="0.5"/>
  
  <!-- Eyes behind glasses -->
  <circle cx="13.5" cy="13" r="0.8" fill="#000"/>
  <circle cx="18.5" cy="13" r="0.8" fill="#000"/>
  
  <!-- Beard -->
  <path d="M12 16c0 2 1.5 3 4 3s4-1 4-3c0 1-1 2-2 2h-4c-1 0-2-1-2-2z" fill="#1f2937"/>
  
  <!-- Smile -->
  <path d="M14 15.5c1 0.8 3 0.8 4 0" stroke="#000" stroke-width="0.5" stroke-linecap="round" fill="none"/>
  
  <!-- Shirt -->
  <path d="M9 22c0-3 2-5 7-5s7 2 7 5v10H9v-10z" fill="#059669"/>
</svg>
