<svg width="32" height="32" viewBox="0 0 32 32" fill="none" xmlns="http://www.w3.org/2000/svg">
  <!-- Background -->
  <circle cx="16" cy="16" r="16" fill="#fef3c7"/>
  
  <!-- Face -->
  <circle cx="16" cy="14" r="7" fill="#f59e0b"/>
  
  <!-- Hair (long, flowing) -->
  <path d="M9 10c0-6 3-8 7-8s7 2 7 8c1 2 1 8 0 12-0.5 1-1.5 1-2 0-0.5-2-0.5-6 0-8-1 0-2 1-2 2s-1 2-2 2-1-1-2-2 -1-2-2-2c0.5 2 0.5 6 0 8-0.5 1-1.5 1-2 0-1-4-1-10 0-12z" fill="#7c2d12"/>
  
  <!-- Eyes -->
  <circle cx="13.5" cy="13" r="0.8" fill="#000"/>
  <circle cx="18.5" cy="13" r="0.8" fill="#000"/>
  <circle cx="13.3" cy="12.7" r="0.3" fill="#fff"/>
  <circle cx="18.3" cy="12.7" r="0.3" fill="#fff"/>
  
  <!-- Smile -->
  <path d="M14 16c1 1.5 3 1.5 4 0" stroke="#000" stroke-width="0.5" stroke-linecap="round" fill="none"/>
  
  <!-- Earrings -->
  <circle cx="11.5" cy="14.5" r="0.5" fill="#fbbf24"/>
  <circle cx="20.5" cy="14.5" r="0.5" fill="#fbbf24"/>
  
  <!-- Shirt -->
  <path d="M9 22c0-3 2-5 7-5s7 2 7 5v10H9v-10z" fill="#ec4899"/>
  
  <!-- Necklace -->
  <circle cx="16" cy="22" r="1" fill="#fbbf24"/>
</svg>
