<svg width="32" height="32" viewBox="0 0 32 32" fill="none" xmlns="http://www.w3.org/2000/svg">
  <!-- Background -->
  <circle cx="16" cy="16" r="16" fill="#fce7f3"/>
  
  <!-- Face -->
  <circle cx="16" cy="14" r="7" fill="#fcd34d"/>
  
  <!-- Hair (shoulder length, blonde) -->
  <path d="M9.5 9c0-5 2.5-7 6.5-7s6.5 2 6.5 7c1 1 1.5 4 1 8-0.2 2-1 3-2 2s-1-3-0.5-5c-0.5 1-1 2-1.5 2s-1-0.5-1.5-1.5c0 0.5-0.5 1.5-1 1.5s-1-1-1.5-2c0.5 2 0.5 4-0.5 5s-1.8 0-2-2c-0.5-4 0-7 1-8z" fill="#fbbf24"/>
  
  <!-- Eyes -->
  <circle cx="13.5" cy="13" r="0.8" fill="#1e40af"/>
  <circle cx="18.5" cy="13" r="0.8" fill="#1e40af"/>
  <circle cx="13.3" cy="12.7" r="0.3" fill="#fff"/>
  <circle cx="18.3" cy="12.7" r="0.3" fill="#fff"/>
  
  <!-- Eyelashes -->
  <path d="M13.5 11.8l-0.3-0.5M13.8 11.9l0-0.6M14.1 12l0.3-0.5" stroke="#000" stroke-width="0.2"/>
  <path d="M18.5 11.8l0.3-0.5M18.2 11.9l0-0.6M17.9 12l-0.3-0.5" stroke="#000" stroke-width="0.2"/>
  
  <!-- Smile -->
  <path d="M14 16c1 1.2 3 1.2 4 0" stroke="#000" stroke-width="0.5" stroke-linecap="round" fill="none"/>
  
  <!-- Lipstick -->
  <ellipse cx="16" cy="16.5" rx="1.5" ry="0.8" fill="#ec4899"/>
  
  <!-- Shirt -->
  <path d="M9 22c0-3 2-5 7-5s7 2 7 5v10H9v-10z" fill="#8b5cf6"/>
  
  <!-- Necklace -->
  <path d="M13 21c1-0.5 2-0.5 3 0s2 0.5 3 0" stroke="#fbbf24" stroke-width="0.8" fill="none"/>
  <circle cx="16" cy="21.5" r="0.5" fill="#fbbf24"/>
</svg>
