<svg width="24" height="24" viewBox="0 0 24 24" fill="none" xmlns="http://www.w3.org/2000/svg">
<path d="M17.7049 12.7049C17.5199 12.8948 17.2649 12.9998 16.9999 12.9998C16.7349 12.9998 16.4799 12.8948 16.2949 12.7049C16.1049 12.5199 15.9999 12.2649 15.9999 11.9999C15.9999 11.7349 16.1049 11.4799 16.2949 11.2949C16.4799 11.1049 16.7349 11 16.9999 11C17.2649 11 17.5199 11.1049 17.7049 11.2949C17.8949 11.4799 17.9999 11.7349 17.9999 11.9999C17.9999 12.2649 17.8949 12.5199 17.7049 12.7049Z" fill="#6A6B6E"/>
<path fill-rule="evenodd" clip-rule="evenodd" d="M19.9999 6.99998V7.99998C21.1049 7.99998 22 8.89498 22 9.99999V14C22 15.105 21.105 16 20 16L19.9999 16.9999C19.9999 18.6549 18.6549 19.9999 16.9999 19.9999H4.99998C3.34499 19.9999 2 18.6549 2 16.9999V6.99998C2 5.34499 3.34499 4 4.99998 4H16.9999C18.6549 4 19.9999 5.34499 19.9999 6.99998ZM14.9999 7.99998H17.9999V6.99998C17.9999 6.71998 17.8899 6.47497 17.7049 6.29497C17.5249 6.10997 17.2799 5.99999 16.9999 5.99999H4.99998C4.71998 5.99999 4.47497 6.10997 4.29497 6.29497C4.10997 6.47497 3.99999 6.71998 3.99999 6.99998V16.9999C3.99999 17.2799 4.10997 17.5249 4.29497 17.7049C4.47497 17.8899 4.71998 17.9999 4.99998 17.9999H16.9999C17.2799 17.9999 17.5249 17.8899 17.7049 17.7049C17.8899 17.5249 17.9999 17.2799 17.9999 16.9999V16H14.9999C13.8949 16 12.9999 15.105 12.9999 14V9.99999C12.9999 8.89498 13.8949 7.99998 14.9999 7.99998ZM20 14H19.0135L18.9999 13.9999L18.9863 14H14.9999V9.99999H20V14Z" fill="#6A6B6E"/>
</svg>
